<svg width="16" height="18" viewBox="0 0 16 18" fill="none" xmlns="http://www.w3.org/2000/svg">
<path fill-rule="evenodd" clip-rule="evenodd" d="M3 0C1.34315 0 0 1.34315 0 3V17C0 17.5523 0.447715 18 1 18H2C2.55228 18 3 17.5523 3 17H13C13 17.5523 13.4477 18 14 18H15C15.5523 18 16 17.5523 16 17V3C16 1.34315 14.6569 0 13 0H3ZM3 3C2.44772 3 2 3.44772 2 4V10C2 10.5523 2.44643 11 2.99871 11H8H13.0013C13.5536 11 14 10.5523 14 10V4C14 3.44772 13.5523 3 13 3H3ZM4 14C4 14.5523 3.55228 15 3 15C2.44772 15 2 14.5523 2 14C2 13.4477 2.44772 13 3 13C3.55228 13 4 13.4477 4 14ZM13 15C13.5523 15 14 14.5523 14 14C14 13.4477 13.5523 13 13 13C12.4477 13 12 13.4477 12 14C12 14.5523 12.4477 15 13 15Z" fill="#698CA5"/>
</svg>
