<svg width="15" height="16" viewBox="0 0 15 16" fill="none" xmlns="http://www.w3.org/2000/svg">
<path fill-rule="evenodd" clip-rule="evenodd" d="M1.5 0C0.947715 0 0.5 0.447715 0.5 1V6V7C0.5 8.4865 1.58114 9.72048 3 9.95852V14.5C3 15.3284 3.67157 16 4.5 16C5.32843 16 6 15.3284 6 14.5V9.95852C7.41886 9.72048 8.5 8.4865 8.5 7V6V1C8.5 0.447715 8.05228 0 7.5 0C6.94772 0 6.5 0.447715 6.5 1V6H5.5V1C5.5 0.447715 5.05228 0 4.5 0C3.94772 0 3.5 0.447715 3.5 1V6H2.5V1C2.5 0.447715 2.05228 0 1.5 0ZM11 4C11 1.79086 12.7909 0 15 0V10V14.5C15 15.3284 14.3284 16 13.5 16C12.6716 16 12 15.3284 12 14.5V13.1655C12 13.0554 12.0091 12.9454 12.0272 12.8367L12.5 10H11V4Z" fill="#698CA5"/>
</svg>
