<svg width="13" height="13" viewBox="0 0 13 13" fill="none" xmlns="http://www.w3.org/2000/svg">
<path fill-rule="evenodd" clip-rule="evenodd" d="M6.92599 2.478C7.43933 2.534 7.84999 2.625 8.15799 2.751C8.47066 2.877 8.69699 3.04267 8.83699 3.248C8.97699 3.45333 9.04699 3.71 9.04699 4.018C9.04699 4.44267 8.87432 4.79733 8.52899 5.082C8.18366 5.36667 7.72166 5.54867 7.14299 5.628V6.076C7.14299 6.12733 7.12433 6.17167 7.08699 6.209C7.04966 6.24633 7.00533 6.265 6.95399 6.265H6.01599C5.96466 6.265 5.92033 6.24633 5.88299 6.209C5.84566 6.17167 5.82699 6.12733 5.82699 6.076V5.628H4.16101V4.305H5.59601H6.51299C6.95633 4.305 7.17799 4.23733 7.17799 4.102C7.17799 4.046 7.14766 3.99933 7.08699 3.962C7.03099 3.92 6.92833 3.885 6.77899 3.857C6.63433 3.82433 6.41966 3.79167 6.13499 3.759C5.49566 3.68433 5.00566 3.52567 4.66499 3.283C4.32433 3.03567 4.15399 2.688 4.15399 2.24C4.15399 1.84333 4.30333 1.50733 4.60199 1.232C4.90066 0.952 5.30899 0.77 5.82699 0.686V0.189C5.82699 0.137666 5.84566 0.0933332 5.88299 0.0559998C5.92033 0.0186666 5.96466 0 6.01599 0H6.95399C7.00533 0 7.04966 0.0186666 7.08699 0.0559998C7.12433 0.0933332 7.14299 0.137666 7.14299 0.189V0.686H8.69603V1.995H7.19103H6.48499C6.17233 1.995 6.01599 2.06033 6.01599 2.191C6.01599 2.261 6.07666 2.317 6.19799 2.359C6.31932 2.39633 6.56199 2.436 6.92599 2.478ZM6 7H8C8.55229 7 9 7.44772 9 8C9 8.55228 8.55229 9 8 9H5.33333L5 10H8.99982L11.0354 7.96447C11.4259 7.57394 12.059 7.57394 12.4496 7.96447L12.5355 8.05044C12.9261 8.44096 12.9261 9.07413 12.5355 9.46465L9 13.0002L8.99982 13H4H0V10L2.41421 7.58579C2.78929 7.21071 3.29799 7 3.82843 7H4H6Z" fill="#24D474"/>
</svg>
