<svg width="17" height="16" viewBox="0 0 17 16" fill="none" xmlns="http://www.w3.org/2000/svg">
<path fill-rule="evenodd" clip-rule="evenodd" d="M5.5 2C5.5 3.10457 4.60457 4 3.5 4C2.39543 4 1.5 3.10457 1.5 2C1.5 0.895431 2.39543 0 3.5 0C4.60457 0 5.5 0.895431 5.5 2ZM2 5C0.895431 5 0 5.89543 0 7V11C0 11.5523 0.447715 12 1 12H2V15C2 15.5523 2.44772 16 3 16H4C4.55228 16 5 15.5523 5 15V12H6C6.55228 12 7 11.5523 7 11V7C7 5.89543 6.10457 5 5 5H2ZM14.5 2C14.5 3.10457 13.6046 4 12.5 4C11.3955 4 10.5 3.10457 10.5 2C10.5 0.895431 11.3955 0 12.5 0C13.6046 0 14.5 0.895431 14.5 2ZM12.3188 5C11.5188 5 10.7957 5.47679 10.4805 6.21216L8.59743 10.6061C8.31463 11.2659 8.79867 12 9.51658 12H11V15C11 15.5523 11.4478 16 12 16H13C13.5523 16 14 15.5523 14 15V12H15.4835C16.2014 12 16.6854 11.2659 16.4026 10.6061L14.5195 6.21216C14.2044 5.47679 13.4813 5 12.6812 5H12.3188Z" fill="#698CA5"/>
</svg>
