<svg width="19" height="15" viewBox="0 0 19 15" fill="none" xmlns="http://www.w3.org/2000/svg">
<path fill-rule="evenodd" clip-rule="evenodd" d="M10 3.875C10 5.73896 8.48896 7.25 6.625 7.25C4.76104 7.25 3.25 5.73896 3.25 3.875C3.25 2.01104 4.76104 0.5 6.625 0.5C8.48896 0.5 10 2.01104 10 3.875ZM0.25 13.7C0.25 11.3804 2.1304 9.5 4.45 9.5H8.8C11.1196 9.5 13 11.3804 13 13.7C13 14.2799 12.5299 14.75 11.95 14.75H1.3C0.720101 14.75 0.25 14.2799 0.25 13.7ZM14.875 8.75C16.3247 8.75 17.5 7.57475 17.5 6.125C17.5 4.67525 16.3247 3.5 14.875 3.5C13.4253 3.5 12.25 4.67525 12.25 6.125C12.25 7.57475 13.4253 8.75 14.875 8.75ZM15.25 11C14.9353 11 14.6319 11.0485 14.3469 11.1383C14.538 11.5433 14.6854 11.9713 14.7835 12.4178L15.2956 14.75H18.25C18.6642 14.75 19 14.4142 19 14C19 12.3431 17.6569 11 16 11H15.25Z" fill="#698CA5"/>
</svg>
