<svg width="16" height="16" viewBox="0 0 16 16" fill="none" xmlns="http://www.w3.org/2000/svg">
<path fill-rule="evenodd" clip-rule="evenodd" d="M0 0H0.75H6.75H7.5V0.75V6.75V7.5H6.75H0.75H0V6.75V0.75V0ZM1.5 1.5V6H6V1.5H1.5ZM2.5 2.5H5V5H2.5V2.5ZM0 8.5H0.75H6.75H7.5V9.25V15.25V16H6.75H0.75H0V15.25V9.25V8.5ZM1.5 10V14.5H6V10H1.5ZM2.5 11H5V13.5H2.5V11ZM9.25 0H8.5V0.75V6.75V7.5H9.25H15.25H16V6.75V0.75V0H15.25H9.25ZM10 6V1.5H14.5V6H10ZM13.5 2.5H11V5H13.5V2.5ZM16 14.5V8.5H14.5V11H11V8.5H8.5V11H11V14.5H8.5V16H14.5H16V14.5ZM14.5 13H13V14.5H14.5V13Z" fill="#24D474"/>
</svg>
