<svg width="17" height="14" viewBox="0 0 17 14" fill="none" xmlns="http://www.w3.org/2000/svg">
<path fill-rule="evenodd" clip-rule="evenodd" d="M3.96118 1.60797C3.74456 0.524851 2.69091 -0.177583 1.60779 0.0390412C0.524668 0.255665 -0.177766 1.30932 0.0388581 2.39243L1.39575 9.1769C1.95666 11.9814 4.41915 14.0002 7.27924 14.0002H12C13.1046 14.0002 14 13.1048 14 12.0002C14 10.8956 13.1046 10.0002 12 10.0002H7.27924C6.32587 10.0002 5.50504 9.32728 5.31807 8.39243L3.96118 1.60797ZM9.66237 5.31911L8.63698 7.00002H7.01467L8.80178 4.37429L7.21975 2.01955H8.83474L9.66237 3.41481L10.49 2.01955H12.105L10.5266 4.37429L12.3137 7.00002H10.6914L9.66237 5.31911ZM16.1004 5.77688V7.00002H12.7715V2.01955H14.1521V5.77688H16.1004Z" fill="#698CA5"/>
</svg>
