<svg width="18" height="18" viewBox="0 0 18 18" fill="none" xmlns="http://www.w3.org/2000/svg">
<path fill-rule="evenodd" clip-rule="evenodd" d="M9 17.25C13.5563 17.25 17.25 13.5563 17.25 9C17.25 4.44365 13.5563 0.75 9 0.75C4.44365 0.75 0.75 4.44365 0.75 9C0.75 13.5563 4.44365 17.25 9 17.25ZM7.875 4.125C7.875 3.50368 8.37868 3 9 3C9.62132 3 10.125 3.50368 10.125 4.125V7.97633L13.461 9.90234C13.999 10.213 14.1834 10.901 13.8727 11.4391C13.5621 11.9772 12.874 12.1616 12.336 11.8509L8.43884 9.6009C8.29077 9.51541 8.16948 9.40135 8.07793 9.26969C7.95004 9.08712 7.875 8.86483 7.875 8.625V4.125Z" fill="#698CA5"/>
</svg>
