<svg width="20" height="14" viewBox="0 0 20 14" fill="none" xmlns="http://www.w3.org/2000/svg">
<path fill-rule="evenodd" clip-rule="evenodd" d="M8.40981 12.5858C9.19086 11.8047 10.4572 11.8047 11.2382 12.5858L9.82402 14L8.40981 12.5858ZM5.58138 9.75736C7.92453 7.41421 11.7235 7.41421 14.0667 9.75736L12.6524 11.1716C11.0904 9.60948 8.55769 9.60948 6.99559 11.1716L5.58138 9.75736ZM2.75295 6.92893C6.6582 3.02369 12.9898 3.02369 16.8951 6.92893L15.4809 8.34315C12.3567 5.21895 7.29136 5.21895 4.16717 8.34315L2.75295 6.92893ZM0 4.17598C0.0248562 4.15075 0.0498276 4.12559 0.074914 4.1005C5.51717 -1.34175 14.3253 -1.36672 19.7984 4.02559L18.3842 5.43985C13.6921 0.828562 6.15033 0.853518 1.48913 5.51472C1.46404 5.53981 1.43908 5.56498 1.41426 5.59024L0 4.17598Z" fill="#698CA5"/>
</svg>
